<svg width="49" height="49" viewBox="0 0 49 49" fill="none" xmlns="http://www.w3.org/2000/svg">
<rect x="0.5" y="0.5" width="48" height="48" rx="24" fill="#5EBEF0"/>
<path fill-rule="evenodd" clip-rule="evenodd" d="M28.4375 29.1875C27.6091 29.1875 26.9375 29.8591 26.9375 30.6875V35.375C26.9375 36.2034 27.6091 36.875 28.4375 36.875H33.125C33.9534 36.875 34.625 36.2034 34.625 35.375V30.6875C34.625 29.8591 33.9534 29.1875 33.125 29.1875H28.4375ZM28.7656 30.6875C28.4809 30.6875 28.25 30.9184 28.25 31.2031C28.25 31.4879 28.4809 31.7188 28.7656 31.7188H32.7969C33.0816 31.7188 33.3125 31.4879 33.3125 31.2031C33.3125 30.9184 33.0816 30.6875 32.7969 30.6875H28.7656ZM28.7656 32.5156C28.4809 32.5156 28.25 32.7465 28.25 33.0312C28.25 33.316 28.4809 33.5469 28.7656 33.5469H32.7969C33.0816 33.5469 33.3125 33.316 33.3125 33.0312C33.3125 32.7465 33.0816 32.5156 32.7969 32.5156H28.7656ZM28.25 34.8594C28.25 34.5746 28.4809 34.3438 28.7656 34.3438H31.1562C31.441 34.3438 31.6719 34.5746 31.6719 34.8594C31.6719 35.1441 31.441 35.375 31.1562 35.375H28.7656C28.4809 35.375 28.25 35.1441 28.25 34.8594Z" fill="white"/>
<path fill-rule="evenodd" clip-rule="evenodd" d="M32.9269 22.7298C32.4898 23.397 32.006 24.0372 31.4959 24.5517C31.3195 24.7296 31.1118 24.9209 30.8797 25.1219C30.7386 25.1136 30.5964 25.1093 30.4531 25.1093C27.4739 25.1093 24.9218 26.9378 23.8577 29.5338C23.273 28.3155 22.4793 27.1735 21.4767 26.1624C20.4143 25.0911 19.2061 24.2563 17.9165 23.6581C17.7725 23.5913 17.7161 23.4138 17.801 23.2789C18.855 21.6028 21.454 17.5683 23.0124 15.9968C23.5222 15.4827 24.157 14.9956 24.8188 14.5556C27.3332 12.8838 30.4422 12.5685 33.4379 12.8816C34.0496 12.9455 34.5334 13.4334 34.5962 14.0503C34.9036 17.0688 34.5857 20.198 32.9269 22.7298ZM30.653 16.8506C31.0972 17.2986 31.1864 17.9213 30.9205 18.7189C30.661 19.515 30.0857 20.3624 29.1945 21.2611C28.3033 22.1598 27.461 22.742 26.6676 23.0075C25.8767 23.2757 25.2591 23.1858 24.8149 22.7378C24.3681 22.2873 24.2764 21.662 24.5398 20.8619C24.8057 20.0643 25.3843 19.2162 26.2755 18.3175C27.1667 17.4188 28.007 16.8387 28.7965 16.577C29.5899 16.3114 30.2087 16.4026 30.653 16.8506ZM11.3547 22.0364C11.1168 22.1944 11.2788 22.6105 11.5623 22.5826C13.0565 22.4357 14.5723 22.5633 16.0291 22.9654C16.138 22.9954 16.2542 22.9527 16.3166 22.8578L19.5439 17.9449C19.5988 17.8614 19.5957 17.7522 19.5363 17.672C19.2383 17.2697 18.6811 17.1712 18.2652 17.4473L11.3547 22.0364ZM14.002 33.9456C13.8147 33.9947 13.6482 33.8267 13.6969 33.6378C14.0258 32.3614 15.076 28.5074 15.9868 27.5889C17.0829 26.4836 18.87 26.4936 19.9783 27.6113C21.0867 28.7289 21.0966 30.531 20.0005 31.6363C19.0897 32.5549 15.2679 33.6138 14.002 33.9456Z" fill="white"/>
</svg>
