<svg width="40" height="40" viewBox="0 0 40 40" fill="none" xmlns="http://www.w3.org/2000/svg">
<circle cx="20" cy="20" r="20" fill="url(#paint0_linear_305_34184)"/>
<path d="M25.3643 23.5301L21.5727 26.0932C21.5616 26.1043 21.2467 26.3129 21.1403 26.3928C21.0338 26.4727 21.0516 26.648 21.0738 26.7257C21.6392 28.4899 21.4729 30.0544 21.4729 30.3207C21.4729 30.587 21.4729 30.7535 21.6392 30.82C21.7722 30.8733 21.8942 30.7535 21.9385 30.6869C23.0915 28.9338 25.4774 25.3076 25.7967 24.8283C26.1958 24.2291 25.9962 23.8962 25.7967 23.6299C25.637 23.4169 25.4419 23.4746 25.3643 23.5301Z" fill="white"/>
<path d="M16.5608 14.6668L13.8965 18.7075C13.8851 18.7193 13.6681 19.0549 13.5854 19.1681C13.5027 19.2813 13.3289 19.2572 13.2523 19.231C11.5149 18.5685 9.95392 18.7052 9.68908 18.6978C9.42424 18.6903 9.25871 18.6857 9.19755 18.5035C9.14863 18.3577 9.27151 18.2288 9.33907 18.1825C11.1176 16.9809 14.7964 14.4945 15.2828 14.1616C15.8908 13.7455 16.2158 13.9712 16.4746 14.1951C16.6816 14.3742 16.6183 14.5842 16.5608 14.6668Z" fill="white"/>
<path fill-rule="evenodd" clip-rule="evenodd" d="M15.5526 18.4704C16.6502 16.6396 19.2312 12.7449 20.7744 11.8129C22.7035 10.6478 24.3 10.1152 26.1293 10.0486C26.2201 10.0453 26.3092 10.042 26.3967 10.0388C28.0723 9.97667 29.1441 9.93694 29.5551 10.3482C29.9205 10.714 29.9533 11.27 29.9748 11.6344C29.9788 11.7011 29.9823 11.7614 29.9875 11.8129C30.0207 12.1457 30.0207 15.4079 29.5551 16.5397C29.5065 16.6577 29.4583 16.7786 29.409 16.9023C28.9855 17.9648 28.4802 19.2327 26.9608 20.6341C25.6038 21.8857 22.5594 23.9517 21.2068 24.8283L20.8077 25.0946C20.7079 25.1612 20.4751 25.1811 20.342 24.7284C20.1757 24.1625 19.0449 22.4982 17.6812 21.2998C16.5903 20.3411 15.5193 19.7908 15.1202 19.6354C15.0315 19.6022 14.9073 19.4557 15.1202 19.1361C15.3331 18.8166 15.4972 18.5591 15.5526 18.4704ZM25.7634 13.277C26.1847 13.3436 26.9807 13.8429 26.7945 14.775C26.5617 15.94 25.8632 16.8055 24.7656 17.8374C23.5456 18.9845 22.4374 19.5018 21.5061 19.0358C20.5749 18.5697 20.8409 16.9719 21.5061 16.1397C22.1713 15.3076 23.4352 13.743 24.8321 13.3769C25.3715 13.2355 25.6816 13.2641 25.7634 13.277Z" fill="white"/>
<path d="M17.4484 23.7966C16.7033 22.1988 14.9206 22.332 14.1224 22.5983C12.5591 23.1642 11.5412 27.7056 11.3951 28.2905C11.2288 28.9562 11.7055 28.8453 11.8607 28.7898L13.1246 28.3903C13.9118 28.1351 15.3198 27.7217 16.2178 27.2918C17.0493 26.8938 18.3331 25.694 17.4484 23.7966Z" fill="white"/>
<defs>
<linearGradient id="paint0_linear_305_34184" x1="20" y1="0" x2="20" y2="40" gradientUnits="userSpaceOnUse">
<stop stop-color="#5EBEF0"/>
<stop offset="1" stop-color="#0295FD"/>
</linearGradient>
</defs>
</svg>
