<svg width="20" height="20" viewBox="0 0 20 20" fill="none" xmlns="http://www.w3.org/2000/svg">
<path d="M7.5 15.8335C3.91667 17.0002 3.91667 13.7502 2.5 13.3335M12.5 17.5002V14.5835C12.5 13.7502 12.5833 13.4169 12.0833 12.9169C14.4167 12.6669 16.6667 11.7502 16.6667 7.91687C16.6657 6.92101 16.2771 5.96463 15.5833 5.2502C15.9087 4.38518 15.8788 3.42656 15.5 2.58354C15.5 2.58354 14.5833 2.33354 12.5833 3.66687C10.8894 3.22569 9.11064 3.22569 7.41667 3.66687C5.41667 2.33354 4.5 2.58354 4.5 2.58354C4.12123 3.42656 4.09128 4.38518 4.41667 5.2502C3.72288 5.96463 3.33435 6.92101 3.33333 7.91687C3.33333 11.7502 5.58333 12.6669 7.91667 12.9169C7.41667 13.4169 7.41667 13.9169 7.5 14.5835V17.5002" stroke="#3F8AE0" stroke-width="1.5" stroke-linecap="round" stroke-linejoin="round"/>
</svg>
