<svg width="20" height="20" viewBox="0 0 20 20" fill="none" xmlns="http://www.w3.org/2000/svg">
<path d="M17.5 10C17.5 8.51664 17.0601 7.0666 16.236 5.83323C15.4119 4.59986 14.2406 3.63856 12.8701 3.07091C11.4997 2.50325 9.99168 2.35472 8.53683 2.64411C7.08197 2.9335 5.7456 3.64781 4.6967 4.6967C3.64781 5.7456 2.9335 7.08197 2.64411 8.53683C2.35472 9.99168 2.50325 11.4997 3.07091 12.8701C3.63856 14.2406 4.59986 15.4119 5.83323 16.236C7.0666 17.0601 8.51664 17.5 10 17.5" stroke="#3F8AE0" stroke-width="1.5" stroke-linecap="round" stroke-linejoin="round"/>
<path d="M3 7.5H17" stroke="#3F8AE0" stroke-width="1.5" stroke-linecap="round" stroke-linejoin="round"/>
<path d="M3 12.5H9.58333" stroke="#3F8AE0" stroke-width="1.5" stroke-linecap="round" stroke-linejoin="round"/>
<path d="M9.58371 2.5C8.17983 4.74968 7.43555 7.34822 7.43555 10C7.43555 12.6518 8.17983 15.2503 9.58371 17.5" stroke="#3F8AE0" stroke-width="1.5" stroke-linecap="round" stroke-linejoin="round"/>
<path d="M10.417 2.5C11.7647 4.65811 12.5057 7.13961 12.562 9.68333" stroke="#3F8AE0" stroke-width="1.5" stroke-linecap="round" stroke-linejoin="round"/>
<path d="M12.5 15C12.5 15.663 12.7634 16.2989 13.2322 16.7678C13.7011 17.2366 14.337 17.5 15 17.5C15.663 17.5 16.2989 17.2366 16.7678 16.7678C17.2366 16.2989 17.5 15.663 17.5 15C17.5 14.337 17.2366 13.7011 16.7678 13.2322C16.2989 12.7634 15.663 12.5 15 12.5C14.337 12.5 13.7011 12.7634 13.2322 13.2322C12.7634 13.7011 12.5 14.337 12.5 15Z" stroke="#3F8AE0" stroke-width="1.5" stroke-linecap="round" stroke-linejoin="round"/>
<path d="M16.833 16.8325L18.333 18.3325" stroke="#3F8AE0" stroke-width="1.5" stroke-linecap="round" stroke-linejoin="round"/>
</svg>
