<svg width="20" height="20" viewBox="0 0 20 20" fill="none" xmlns="http://www.w3.org/2000/svg">
<path d="M7.5 12.5L12.5 7.5" stroke="#3F8AE0" stroke-width="1.5" stroke-linecap="round" stroke-linejoin="round"/>
<path d="M9.16699 5.00042L9.55283 4.55375C10.3343 3.77236 11.3942 3.33342 12.4994 3.3335C13.6045 3.33357 14.6643 3.77266 15.4457 4.55417C16.2271 5.33567 16.6661 6.39558 16.666 7.50071C16.6659 8.60585 16.2268 9.66569 15.4453 10.4471L15.0003 10.8338" stroke="#3F8AE0" stroke-width="1.5" stroke-linecap="round" stroke-linejoin="round"/>
<path d="M10.8331 14.9998L10.5023 15.4448C9.71167 16.2267 8.64462 16.6652 7.53271 16.6652C6.4208 16.6652 5.35375 16.2267 4.56313 15.4448C4.17342 15.0595 3.86404 14.6007 3.65289 14.095C3.44173 13.5892 3.33301 13.0466 3.33301 12.4986C3.33301 11.9505 3.44173 11.4079 3.65289 10.9022C3.86404 10.3965 4.17342 9.93767 4.56313 9.55234L4.99979 9.1665" stroke="#3F8AE0" stroke-width="1.5" stroke-linecap="round" stroke-linejoin="round"/>
</svg>
