<svg width="20" height="20" viewBox="0 0 20 20" fill="none" xmlns="http://www.w3.org/2000/svg">
<path d="M18.3337 3.3407C17.5003 3.74903 16.6837 3.91487 15.8337 4.1657C14.8995 3.11153 13.5145 3.0532 12.1837 3.55153C10.8528 4.04987 9.98116 5.2682 10.0003 6.6657V7.49903C7.29616 7.5682 4.88783 6.33653 3.33366 4.1657C3.33366 4.1657 -0.151341 10.3599 6.66699 13.3324C5.10699 14.3715 3.55116 15.0724 1.66699 14.999C4.42366 16.5015 7.42783 17.0182 10.0287 16.2632C13.012 15.3965 15.4637 13.1607 16.4045 9.81153C16.6851 8.79293 16.8245 7.74058 16.8187 6.68403C16.8187 6.47653 18.077 4.37403 18.3337 3.33987V3.3407Z" stroke="#3F8AE0" stroke-width="1.5" stroke-linecap="round" stroke-linejoin="round"/>
</svg>
